<?xml version="1.0" encoding="UTF-8" standalone="no"?>
<svg
   xmlns:dc="http://purl.org/dc/elements/1.1/"
   xmlns:cc="http://creativecommons.org/ns#"
   xmlns:rdf="http://www.w3.org/1999/02/22-rdf-syntax-ns#"
   xmlns:svg="http://www.w3.org/2000/svg"
   xmlns="http://www.w3.org/2000/svg"
   height="59.999992"
   width="250.00002"
   version="1.1"
   viewBox="0 0 250.00002 59.999992"
   data-name="Livello 1"
   id="Livello_1">
  <metadata
     id="metadata87">
    <rdf:RDF>
      <cc:Work
         rdf:about="">
        <dc:format>image/svg+xml</dc:format>
        <dc:type
           rdf:resource="http://purl.org/dc/dcmitype/StillImage" />
        <dc:title>logo</dc:title>
      </cc:Work>
    </rdf:RDF>
  </metadata>
  <defs
     id="defs4">
    <style
       id="style2">.cls-1{fill:#e42026;}.cls-2{fill:#1c9747;}.cls-3{fill:#231f20;}</style>
  </defs>
  <title
     id="title6">logo</title>
  <path
     style="fill:#e42026;stroke-width:0.18293923"
     id="path8"
     d="m 60.000504,32.255812 a 1.0984429,1.0968287 0 0 0 -1.02338,-1.52641 h -24.5026 a 0.95930666,0.95789709 0 0 0 -0.69934,1.68728 l 17.32611,17.30065 a 1.0984429,1.0968287 0 0 0 1.80144,-0.36561 30.190699,30.146337 0 0 1 7.09594,-17.10322"
     class="cls-1" />
  <g
     id="g980">
    <path
       class="cls-2"
       d="M 32.303274,0.08766165 A 1.0984429,1.0968287 0 0 0 30.774604,1.1095416 V 25.574302 a 0.95930666,0.95789709 0 0 0 1.68794,0.70014 L 49.790474,8.9719716 a 1.0984429,1.0968287 0 0 0 -0.36614,-1.7988 30.734428,30.689268 0 0 1 -9.1244,-2.19366 30.655707,30.610661 0 0 1 -7.99849,-4.89184995"
       id="path10"
       style="fill:#1c9747;stroke-width:0.18293923" />
    <path
       class="cls-3"
       d="m 0.0877736,27.746022 a 1.0984429,1.0968287 0 0 0 1.01972,1.52642 H 25.611924 a 0.9611374,0.95972514 0 0 0 0.69934,-1.68729 L 8.9851636,10.284512 a 1.0984429,1.0968287 0 0 0 -1.80511,0.36561 30.708798,30.663675 0 0 1 -2.19688,9.10916 30.730768,30.685612 0 0 1 -4.8954,7.98674"
       id="path12"
       style="fill:#191919;fill-opacity:1;stroke-width:0.18293923" />
    <path
       class="cls-3"
       d="m 27.785014,59.912352 a 1.0984429,1.0968287 0 0 0 1.52866,-1.01823 v -24.46659 a 0.9611374,0.95972514 0 0 0 -1.68977,-0.70014 l -17.3261,17.30247 a 1.0984429,1.0968287 0 0 0 0.36614,1.7988 30.708798,30.663675 0 0 1 9.12257,2.19366 30.730768,30.685612 0 0 1 8.00765,4.88637"
       id="path14"
       style="fill:#191919;fill-opacity:1;stroke-width:0.18293923" />
    <path
       class="cls-3"
       d="m 10.458904,7.2554316 a 1.0984429,1.0968287 0 0 0 -0.36614,1.7988 l 17.32793,17.3024804 a 0.9611374,0.95972514 0 0 0 1.68977,-0.70015 V 1.1899716 a 1.0984429,1.0968287 0 0 0 -1.52134,-1.02004995 30.708798,30.663675 0 0 1 -8.00582,4.88819995 30.710629,30.665503 0 0 1 -9.12257,2.19366"
       id="path16"
       style="fill:#191919;fill-opacity:1;stroke-width:0.18293923" />
    <path
       class="cls-3"
       d="m 7.2624336,49.558292 a 1.0984429,1.0968287 0 0 0 1.80511,0.3656 L 26.393654,32.610452 a 0.9611374,0.95972514 0 0 0 -0.69935,-1.68728 H 1.1898836 a 1.0984429,1.0968287 0 0 0 -1.01972,1.52642 30.732596,30.68744 0 0 1 4.89356,7.99588 30.708798,30.663675 0 0 1 2.19688,9.10916"
       id="path18"
       style="fill:#191919;fill-opacity:1;stroke-width:0.18293923" />
    <path
       class="cls-3"
       d="m 49.627544,52.746402 a 1.0984429,1.0968287 0 0 0 0.36614,-1.7988 l -17.3261,-17.30247 a 0.9611374,0.95972514 0 0 0 -1.68977,0.70014 v 24.46477 a 1.0984429,1.0968287 0 0 0 1.52867,1.02187 30.192528,30.148165 0 0 1 17.13021,-7.08551"
       id="path20"
       style="fill:#191919;fill-opacity:1;stroke-width:0.18293923" />
    <path
       class="cls-3"
       d="m 68.529914,15.130662 h 7.50602 v 11.04324 q -2.22434,1.50631 -5.49221,2.48615 a 21.21093,21.179763 0 0 1 -6.0927,0.97983 q -4.11366,0 -7.37787,-1.78966 a 13.130052,13.110759 0 0 1 -5.11508,-4.93573 q -1.84721,-3.14607 -1.84904,-7.10379 a 13.239897,13.220442 0 0 1 7.24606,-11.9810304 q 3.39785,-1.77138 7.66163,-1.76955 a 18.071214,18.044661 0 0 1 6.2117,1.11877 q 3.11225,1.13339 5.22676,3.01445 l -4.95216,5.9996504 a 9.9409067,9.9262999 0 0 0 -3.11225,-2.09311 8.6300986,8.6174178 0 0 0 -3.41433,-0.7696104 5.5691047,5.5609217 0 0 0 -3.01888,0.8482104 5.7851315,5.7766311 0 0 0 -2.10718,2.32345 7.1746615,7.1641193 0 0 0 -0.75426,3.31608 7.2240922,7.2134773 0 0 0 0.77074,3.37275 5.9151143,5.9064229 0 0 0 2.1328,2.33624 5.6350114,5.6267315 0 0 0 3.05734,0.84822 q 1.43346,0 3.4784,-0.90489 v -6.33967 z"
       id="path22"
       style="fill:#191919;fill-opacity:1;stroke-width:0.18293923" />
  </g>
  <g
     transform="matrix(0.18307381,0,0,0.18280479,-0.0788164,0.07121165)"
     id="g922">
    <path
       class="cls-3"
       d="m 516.57,158.45 -17.32,-37.51 h -17.93 v 37.51 H 433.51 V 14 h 69.87 q 29.49,0 45.56,13.5 Q 565.01,41 565,65.69 565,81.37 559.11,93 a 44.93,44.93 0 0 1 -17,18.45 l 28.44,47 h -54 z m -35.25,-73.8 h 22.05 q 7.83,0 12.06,-4.64 4.23,-4.64 4.23,-12.89 0,-8 -4.23,-12.47 -4.23,-4.47 -12.06,-4.43 h -22.05 z"
       id="path24"
       style="fill:#191919;fill-opacity:1" />
    <polygon
       class="cls-3"
       points="582.95,158.45 582.95,13.96 630.76,13.96 630.76,158.45 "
       id="polygon26"
       style="fill:#191919;fill-opacity:1" />
    <path
       class="cls-3"
       d="m 744.75,82.38 h 41 v 60.41 q -12.15,8.24 -30,13.6 a 115.86,115.86 0 0 1 -33.28,5.36 q -22.47,0 -40.3,-9.79 a 71.82,71.82 0 0 1 -27.94,-27 Q 644.14,107.75 644.13,86.1 a 72.32,72.32 0 0 1 39.58,-65.54 q 18.56,-9.69 41.85,-9.68 A 98.7,98.7 0 0 1 759.49,17 q 17,6.2 28.55,16.49 L 761,66.31 A 54.3,54.3 0 0 0 744,54.86 47.14,47.14 0 0 0 725.35,50.65 30.42,30.42 0 0 0 708.86,55.29 31.61,31.61 0 0 0 697.34,68 a 39.19,39.19 0 0 0 -4.12,18.14 39.3,39.3 0 0 0 4.23,18.45 32.17,32.17 0 0 0 11.64,12.78 30.78,30.78 0 0 0 16.7,4.64 q 7.83,0 19,-4.95 V 82.38 Z"
       id="path28"
       style="fill:#191919;fill-opacity:1" />
    <path
       class="cls-3"
       d="m 875.63,10.87 q 22.68,0 40.81,9.68 a 71.42,71.42 0 0 1 28.35,26.8 Q 955,64.46 955,85.89 q 0,21.64 -10.2,39 a 71.67,71.67 0 0 1 -28.35,27.1 q -18.13,9.79 -40.81,9.79 -22.68,0 -40.81,-9.79 a 71.73,71.73 0 0 1 -28.33,-27.1 q -10.22,-17.31 -10.21,-39 0.01,-21.69 10.21,-38.75 a 70.75,70.75 0 0 1 28.33,-26.69 q 18.15,-9.58 40.81,-9.59 z m 0.63,39.78 A 27.53,27.53 0 0 0 860.9,55.29 33.4,33.4 0 0 0 849.56,68 a 38.41,38.41 0 0 0 -4.21,18.14 39,39 0 0 0 4.21,18.25 34.17,34.17 0 0 0 11.34,12.89 27.2,27.2 0 0 0 15.36,4.72 26.1,26.1 0 0 0 15.05,-4.64 A 31.58,31.58 0 0 0 902,104.45 42.27,42.27 0 0 0 905.92,86.1 41.51,41.51 0 0 0 902,67.86 31,31 0 0 0 891.29,55.18 26.61,26.61 0 0 0 876.24,50.65 Z"
       id="path30"
       style="fill:#191919;fill-opacity:1" />
    <polygon
       class="cls-3"
       points="968.4,158.45 968.4,13.96 1016.21,13.96 1016.21,118.67 1076.4,118.67 1076.4,158.45 "
       id="polygon32"
       style="fill:#191919;fill-opacity:1" />
    <polygon
       class="cls-3"
       points="1088.77,158.45 1088.77,13.96 1136.59,13.96 1136.59,158.45 "
       id="polygon34"
       style="fill:#191919;fill-opacity:1" />
    <polygon
       class="cls-3"
       points="1297.57,13.96 1297.57,158.45 1257.59,158.45 1200.69,84.65 1200.69,158.45 1157.2,158.45 1157.2,13.96 1197.2,13.96 1254.29,88.16 1254.29,13.96 "
       id="polygon36"
       style="fill:#191919;fill-opacity:1" />
    <polygon
       class="cls-3"
       points="1318.18,158.45 1318.18,13.96 1366,13.96 1366,158.45 "
       id="polygon38"
       style="fill:#191919;fill-opacity:1" />
  </g>
  <g
     transform="matrix(0.18307381,0,0,0.18280479,-0.0788164,0.07121165)"
     id="g946">
    <polygon
       class="cls-3"
       points="385.61,289.63 380.07,289.63 380.07,217.7 352.99,217.7 352.99,212.99 412.53,212.99 412.53,217.7 385.61,217.7 "
       id="polygon40"
       style="fill:#191919;fill-opacity:1" />
    <path
       class="cls-3"
       d="m 431.86,234.87 a 22.26,22.26 0 0 1 8.43,1.58 18.89,18.89 0 0 1 6.71,4.55 21.26,21.26 0 0 1 4.45,7.38 29.6,29.6 0 0 1 1.55,10.12 2.6,2.6 0 0 1 -0.35,1.62 1.34,1.34 0 0 1 -1.1,0.43 h -38.9 v 1 a 36,36 0 0 0 1.41,10.66 21.85,21.85 0 0 0 4,7.72 16.54,16.54 0 0 0 6.29,4.69 20.73,20.73 0 0 0 8.23,1.56 25.08,25.08 0 0 0 7,-0.88 26.13,26.13 0 0 0 5,-2 27.71,27.71 0 0 0 3.22,-2 3.64,3.64 0 0 1 1.73,-0.9 1.24,1.24 0 0 1 1.09,0.54 l 1.4,1.73 a 14.68,14.68 0 0 1 -3.44,3 24.38,24.38 0 0 1 -4.76,2.41 34.59,34.59 0 0 1 -5.64,1.59 30.1,30.1 0 0 1 -6,0.6 25.68,25.68 0 0 1 -10.07,-1.92 21.53,21.53 0 0 1 -7.8,-5.61 25.65,25.65 0 0 1 -5,-9 38.66,38.66 0 0 1 -1.78,-12.21 33.26,33.26 0 0 1 1.66,-10.7 24.4,24.4 0 0 1 4.77,-8.46 21.62,21.62 0 0 1 7.63,-5.55 25.19,25.19 0 0 1 10.26,-2 z m 0.08,3.85 a 20.17,20.17 0 0 0 -7.46,1.31 16.4,16.4 0 0 0 -5.71,3.74 19,19 0 0 0 -3.89,5.85 26.69,26.69 0 0 0 -2,7.64 h 35.48 a 23.82,23.82 0 0 0 -1.2,-7.78 16.53,16.53 0 0 0 -3.36,-5.82 14.36,14.36 0 0 0 -5.19,-3.66 16.93,16.93 0 0 0 -6.7,-1.28 z"
       id="path42"
       style="fill:#191919;fill-opacity:1" />
    <path
       class="cls-3"
       d="m 476.28,262.06 -18.74,-26.32 h 4.92 a 1.58,1.58 0 0 1 1.11,0.33 3.81,3.81 0 0 1 0.63,0.76 l 15.8,22.85 a 5.84,5.84 0 0 1 0.92,-1.94 l 14.79,-20.86 a 2.82,2.82 0 0 1 0.67,-0.82 1.5,1.5 0 0 1 1,-0.33 h 4.77 l -18.88,26.07 19.62,27.83 h -4.94 a 1.61,1.61 0 0 1 -1.2,-0.45 6.16,6.16 0 0 1 -0.69,-0.9 l -16.37,-23.83 a 5.4,5.4 0 0 1 -0.8,1.84 l -15.72,22.11 a 7,7 0 0 1 -0.79,0.87 1.43,1.43 0 0 1 -1,0.37 h -4.61 l 19.5,-27.57 z"
       id="path44"
       style="fill:#191919;fill-opacity:1" />
    <path
       class="cls-3"
       d="m 528.23,290.5 c -3.64,0 -6.49,-1 -8.5,-3 -2.01,-2 -3,-5.14 -3,-9.37 v -36.86 h -7.75 a 1.47,1.47 0 0 1 -1,-0.33 1.19,1.19 0 0 1 -0.38,-0.92 v -2 l 9.22,-0.64 1.28,-19.29 a 1.49,1.49 0 0 1 0.41,-0.86 1.19,1.19 0 0 1 0.94,-0.38 h 2.41 v 20.58 h 17 v 3.85 h -17 v 36.56 a 11.41,11.41 0 0 0 0.57,3.82 7.14,7.14 0 0 0 1.56,2.62 6.33,6.33 0 0 0 2.37,1.52 8.85,8.85 0 0 0 2.92,0.48 9.19,9.19 0 0 0 3.36,-0.56 14,14 0 0 0 2.43,-1.25 14.69,14.69 0 0 0 1.69,-1.25 1.86,1.86 0 0 1 1,-0.57 1.18,1.18 0 0 1 0.87,0.54 l 1.41,2.28 a 15.13,15.13 0 0 1 -5.23,3.66 16.41,16.41 0 0 1 -6.58,1.37 z"
       id="path46"
       style="fill:#191919;fill-opacity:1" />
    <path
       class="cls-3"
       d="m 558.83,235.74 v 53.89 h -5.14 v -53.89 z m 2.28,-18.57 a 4.09,4.09 0 0 1 -0.41,1.81 5.54,5.54 0 0 1 -1.06,1.5 4.9,4.9 0 0 1 -1.52,1 4.62,4.62 0 0 1 -3.67,0 4.91,4.91 0 0 1 -1.52,-1 5.16,5.16 0 0 1 -1,-1.5 4.49,4.49 0 0 1 -0.38,-1.81 4.91,4.91 0 0 1 0.38,-1.88 4.86,4.86 0 0 1 2.56,-2.57 4.62,4.62 0 0 1 3.67,0 4.71,4.71 0 0 1 1.52,1 5,5 0 0 1 1.06,1.54 4.48,4.48 0 0 1 0.41,1.88 z"
       id="path48"
       style="fill:#191919;fill-opacity:1" />
    <polygon
       class="cls-3"
       points="579.41,210.82 584.57,210.82 584.57,289.63 579.41,289.63 "
       id="polygon50"
       style="fill:#191919;fill-opacity:1" />
    <path
       class="cls-3"
       d="m 623.94,234.87 a 22.26,22.26 0 0 1 8.43,1.58 18.89,18.89 0 0 1 6.72,4.58 21.26,21.26 0 0 1 4.45,7.38 29.59,29.59 0 0 1 1.59,10.09 2.7,2.7 0 0 1 -0.35,1.62 1.34,1.34 0 0 1 -1.1,0.43 h -38.9 v 1 a 36.5,36.5 0 0 0 1.4,10.66 22.1,22.1 0 0 0 4,7.72 16.61,16.61 0 0 0 6.28,4.69 20.85,20.85 0 0 0 8.24,1.56 25.08,25.08 0 0 0 7,-0.88 26.13,26.13 0 0 0 5,-2 27.7,27.7 0 0 0 3.22,-2 3.64,3.64 0 0 1 1.73,-0.9 1.24,1.24 0 0 1 1.09,0.54 l 1.4,1.73 a 14.68,14.68 0 0 1 -3.44,3 24.4,24.4 0 0 1 -4.76,2.41 34.59,34.59 0 0 1 -5.64,1.59 30.1,30.1 0 0 1 -6,0.6 25.68,25.68 0 0 1 -10.07,-1.92 21.53,21.53 0 0 1 -7.8,-5.61 25.44,25.44 0 0 1 -5,-9 38.66,38.66 0 0 1 -1.78,-12.21 33.25,33.25 0 0 1 1.66,-10.7 24.59,24.59 0 0 1 4.76,-8.46 21.68,21.68 0 0 1 7.64,-5.55 25.19,25.19 0 0 1 10.26,-2 z m 0.08,3.85 a 20.17,20.17 0 0 0 -7.46,1.31 16.27,16.27 0 0 0 -5.71,3.74 19,19 0 0 0 -3.89,5.85 26.69,26.69 0 0 0 -2,7.64 h 35.47 a 23.83,23.83 0 0 0 -1.18,-7.78 16.54,16.54 0 0 0 -3.36,-5.82 14.36,14.36 0 0 0 -5.19,-3.66 17,17 0 0 0 -6.7,-1.28 z"
       id="path52"
       style="fill:#191919;fill-opacity:1" />
    <path
       class="cls-3"
       d="m 747,251.29 a 45.42,45.42 0 0 1 -2.65,16 34.28,34.28 0 0 1 -7.48,12.07 32.22,32.22 0 0 1 -11.52,7.64 40.32,40.32 0 0 1 -14.9,2.65 h -28 V 213 h 28 a 40.31,40.31 0 0 1 14.9,2.65 32.22,32.22 0 0 1 11.53,7.64 34.28,34.28 0 0 1 7.48,12.07 45.29,45.29 0 0 1 2.64,15.93 z m -5.74,0 a 42.75,42.75 0 0 0 -2.22,-14.3 30,30 0 0 0 -6.27,-10.62 26.3,26.3 0 0 0 -9.72,-6.61 33.57,33.57 0 0 0 -12.62,-2.28 h -22.35 v 67.67 h 22.36 a 33.57,33.57 0 0 0 12.62,-2.28 26.3,26.3 0 0 0 9.72,-6.61 29.88,29.88 0 0 0 6.27,-10.62 42.88,42.88 0 0 0 2.22,-14.34 z"
       id="path54"
       style="fill:#191919;fill-opacity:1" />
    <path
       class="cls-3"
       d="m 768.9,235.74 v 53.89 h -5.15 v -53.89 z m 2.27,-18.57 a 4.1,4.1 0 0 1 -0.41,1.81 5.49,5.49 0 0 1 -1,1.5 4.91,4.91 0 0 1 -1.52,1 4.44,4.44 0 0 1 -1.84,0.38 4.5,4.5 0 0 1 -1.85,-0.38 5,5 0 0 1 -1.51,-1 5.16,5.16 0 0 1 -1,-1.5 4.27,4.27 0 0 1 -0.38,-1.81 4.83,4.83 0 0 1 1.41,-3.41 4.81,4.81 0 0 1 1.51,-1 4.5,4.5 0 0 1 1.85,-0.38 4.44,4.44 0 0 1 1.84,0.38 4.72,4.72 0 0 1 1.52,1 5,5 0 0 1 1,1.54 4.48,4.48 0 0 1 0.41,1.88 z"
       id="path56"
       style="fill:#191919;fill-opacity:1" />
    <path
       class="cls-3"
       d="m 805.73,234.82 a 23.67,23.67 0 0 1 6.53,0.87 19.76,19.76 0 0 1 5.4,2.43 h 13.81 v 1.79 c 0,0.9 -0.52,1.39 -1.52,1.47 l -8.17,0.59 a 16,16 0 0 1 2.32,4.64 18.07,18.07 0 0 1 0.82,5.49 17.18,17.18 0 0 1 -1.41,7.07 15.69,15.69 0 0 1 -3.93,5.42 17.84,17.84 0 0 1 -6,3.49 23.33,23.33 0 0 1 -7.8,1.24 24.12,24.12 0 0 1 -8.44,-1.4 10.85,10.85 0 0 0 -3.58,3.09 5.91,5.91 0 0 0 -1.31,3.47 4.23,4.23 0 0 0 1.55,3.52 10.6,10.6 0 0 0 4.3,1.81 38.45,38.45 0 0 0 6.13,0.73 l 7,0.35 c 2.35,0.12 4.69,0.35 7,0.68 a 22.34,22.34 0 0 1 6.13,1.7 10.85,10.85 0 0 1 4.3,3.41 9.57,9.57 0 0 1 1.63,5.83 13.27,13.27 0 0 1 -1.69,6.49 17.11,17.11 0 0 1 -4.84,5.47 25.45,25.45 0 0 1 -7.67,3.82 33.13,33.13 0 0 1 -10.07,1.44 38.21,38.21 0 0 1 -10,-1.17 23.63,23.63 0 0 1 -7.18,-3.14 13.78,13.78 0 0 1 -4.36,-4.58 11.17,11.17 0 0 1 -1.45,-5.52 10.55,10.55 0 0 1 2.81,-7.37 18.29,18.29 0 0 1 7.75,-4.77 10.12,10.12 0 0 1 -4.31,-2.65 6.87,6.87 0 0 1 -1.6,-4.83 7.36,7.36 0 0 1 0.44,-2.38 10,10 0 0 1 1.31,-2.46 13.66,13.66 0 0 1 2.08,-2.3 14.76,14.76 0 0 1 2.84,-2 16.18,16.18 0 0 1 -6,-5.9 16.86,16.86 0 0 1 -2.13,-8.62 17.72,17.72 0 0 1 1.37,-7.07 15.92,15.92 0 0 1 3.9,-5.44 17.59,17.59 0 0 1 6.09,-3.52 24,24 0 0 1 7.91,-1.25 z m 20,58.45 a 6,6 0 0 0 -1.32,-4.08 8.81,8.81 0 0 0 -3.55,-2.42 21.32,21.32 0 0 0 -5.13,-1.21 c -1.93,-0.24 -4,-0.41 -6.06,-0.52 l -6.36,-0.33 a 48,48 0 0 1 -6,-0.65 27,27 0 0 0 -3.82,1.86 13.78,13.78 0 0 0 -3,2.39 10.59,10.59 0 0 0 -2,2.92 8.67,8.67 0 0 0 -0.71,3.49 8.42,8.42 0 0 0 1.22,4.42 10.81,10.81 0 0 0 3.58,3.52 20.24,20.24 0 0 0 5.76,2.35 32.43,32.43 0 0 0 7.86,0.87 30.56,30.56 0 0 0 7.67,-0.92 21.44,21.44 0 0 0 6.17,-2.6 13.37,13.37 0 0 0 4.12,-4 9.26,9.26 0 0 0 1.48,-5.1 z m -20,-27.46 a 17.7,17.7 0 0 0 6.17,-1 12.71,12.71 0 0 0 4.55,-2.8 11.53,11.53 0 0 0 2.79,-4.27 16.38,16.38 0 0 0 0,-11.08 11.69,11.69 0 0 0 -2.84,-4.31 13,13 0 0 0 -4.55,-2.76 17.62,17.62 0 0 0 -6.09,-1 17.94,17.94 0 0 0 -6.12,1 13,13 0 0 0 -4.58,2.76 11.87,11.87 0 0 0 -2.84,4.31 15.19,15.19 0 0 0 -1,5.55 15,15 0 0 0 1,5.53 11.82,11.82 0 0 0 2.78,4.26 13.06,13.06 0 0 0 4.58,2.8 17.6,17.6 0 0 0 6.12,1 z"
       id="path58"
       style="fill:#191919;fill-opacity:1" />
    <path
       class="cls-3"
       d="m 849.27,235.74 v 53.89 h -5.14 v -53.89 z m 2.28,-18.57 a 4.1,4.1 0 0 1 -0.41,1.81 5.54,5.54 0 0 1 -1.06,1.5 5,5 0 0 1 -1.51,1 4.5,4.5 0 0 1 -1.85,0.38 4.39,4.39 0 0 1 -1.84,-0.38 4.91,4.91 0 0 1 -1.52,-1 5.15,5.15 0 0 1 -1,-1.5 4.48,4.48 0 0 1 -0.37,-1.81 4.91,4.91 0 0 1 0.37,-1.88 4.86,4.86 0 0 1 2.56,-2.57 4.39,4.39 0 0 1 1.84,-0.38 4.5,4.5 0 0 1 1.85,0.38 4.81,4.81 0 0 1 1.51,1 5,5 0 0 1 1.06,1.54 4.49,4.49 0 0 1 0.41,1.88 z"
       id="path60"
       style="fill:#191919;fill-opacity:1" />
    <path
       class="cls-3"
       d="m 883,290.5 c -3.66,0 -6.48,-1 -8.51,-3 -2.03,-2 -3,-5.14 -3,-9.37 v -36.86 h -7.75 a 1.41,1.41 0 0 1 -1,-0.33 1.14,1.14 0 0 1 -0.38,-0.92 v -2 l 9.2,-0.64 1.29,-19.29 a 1.39,1.39 0 0 1 0.39,-0.86 1.19,1.19 0 0 1 0.94,-0.38 h 2.41 v 20.58 h 17 v 3.85 h -17 v 36.56 a 11.41,11.41 0 0 0 0.57,3.82 7.16,7.16 0 0 0 1.58,2.62 6.28,6.28 0 0 0 2.35,1.52 8.91,8.91 0 0 0 2.92,0.48 9.19,9.19 0 0 0 3.36,-0.56 14.67,14.67 0 0 0 2.45,-1.25 15.73,15.73 0 0 0 1.67,-1.25 1.84,1.84 0 0 1 1,-0.57 1.23,1.23 0 0 1 0.87,0.54 l 1.4,2.28 a 15.2,15.2 0 0 1 -5.22,3.66 16.5,16.5 0 0 1 -6.54,1.37 z"
       id="path62"
       style="fill:#191919;fill-opacity:1" />
    <path
       class="cls-3"
       d="m 941.37,289.63 a 1.86,1.86 0 0 1 -2,-1.51 l -0.76,-6.88 c -1.48,1.44 -3,2.75 -4.4,3.9 a 27.15,27.15 0 0 1 -4.58,2.92 22.55,22.55 0 0 1 -5.14,1.81 27.36,27.36 0 0 1 -6.08,0.63 17.77,17.77 0 0 1 -5.36,-0.82 13,13 0 0 1 -4.61,-2.49 12.26,12.26 0 0 1 -3.22,-4.31 14.79,14.79 0 0 1 -1.21,-6.31 11.18,11.18 0 0 1 1.94,-6.34 16.08,16.08 0 0 1 6.09,-5.09 39.47,39.47 0 0 1 10.67,-3.47 93,93 0 0 1 15.68,-1.52 v -5.63 q 0,-7.48 -3.22,-11.52 -3.22,-4.04 -9.56,-4 a 18.08,18.08 0 0 0 -6.63,1.09 23.37,23.37 0 0 0 -4.64,2.38 32.47,32.47 0 0 0 -3.09,2.38 3.26,3.26 0 0 1 -2,1.09 1.77,1.77 0 0 1 -1.63,-1 l -0.91,-1.56 a 31.32,31.32 0 0 1 8.88,-6.39 24.87,24.87 0 0 1 10.56,-2.17 19.23,19.23 0 0 1 7.59,1.39 14.1,14.1 0 0 1 5.38,4 17.24,17.24 0 0 1 3.22,6.23 28.68,28.68 0 0 1 1.09,8.16 v 35.09 h -2.05 z m -21.67,-2.87 a 22.56,22.56 0 0 0 5.76,-0.68 21,21 0 0 0 4.88,-1.89 24.56,24.56 0 0 0 4.2,-2.9 q 1.94,-1.67 3.83,-3.63 v -14 a 95.79,95.79 0 0 0 -13.24,1.17 37.76,37.76 0 0 0 -9.15,2.57 13.37,13.37 0 0 0 -5.3,3.87 8.22,8.22 0 0 0 -1.71,5.11 11.27,11.27 0 0 0 0.9,4.69 9,9 0 0 0 5.76,5.11 13.5,13.5 0 0 0 4.07,0.6 z"
       id="path64"
       style="fill:#191919;fill-opacity:1" />
    <polygon
       class="cls-3"
       points="961.19,210.82 966.33,210.82 966.33,289.63 961.19,289.63 "
       id="polygon66"
       style="fill:#191919;fill-opacity:1" />
    <path
       class="cls-3"
       d="m 1016.06,258.76 v 30.88 h -5.53 V 213 h 19.78 q 13.48,0 20.34,5.9 6.86,5.9 6.85,16.85 a 22.54,22.54 0 0 1 -1.88,9.26 20.46,20.46 0 0 1 -5.38,7.29 25.37,25.37 0 0 1 -8.57,4.77 35.22,35.22 0 0 1 -11.37,1.7 h -14.25 z m 0,-4.43 h 14.25 a 27.41,27.41 0 0 0 9.1,-1.41 20,20 0 0 0 6.8,-3.9 16.88,16.88 0 0 0 4.28,-5.87 18.15,18.15 0 0 0 1.48,-7.4 q 0,-8.83 -5.44,-13.6 -5.44,-4.77 -16.22,-4.76 h -14.25 z"
       id="path68"
       style="fill:#191919;fill-opacity:1" />
    <path
       class="cls-3"
       d="m 1070.61,289.63 v -53.89 h 2.71 a 1.9,1.9 0 0 1 1.33,0.38 1.93,1.93 0 0 1 0.46,1.31 l 0.42,11.37 a 25.82,25.82 0 0 1 6.93,-10.26 15.87,15.87 0 0 1 10.67,-3.71 18.68,18.68 0 0 1 4.5,0.52 16.89,16.89 0 0 1 3.9,1.5 l -0.71,3.58 a 1,1 0 0 1 -1.09,0.87 3.15,3.15 0 0 1 -0.91,-0.22 c -0.41,-0.15 -0.9,-0.31 -1.5,-0.49 a 17.36,17.36 0 0 0 -2.19,-0.49 17.78,17.78 0 0 0 -3,-0.22 13.83,13.83 0 0 0 -10,3.79 q -3.94,3.79 -6.38,10.94 v 35 z"
       id="path70"
       style="fill:#191919;fill-opacity:1" />
    <path
       class="cls-3"
       d="m 1120.27,235.74 v 53.89 h -5.14 v -53.89 z m 2.28,-18.57 a 4.1,4.1 0 0 1 -0.41,1.81 5.53,5.53 0 0 1 -1.06,1.5 5,5 0 0 1 -1.51,1 4.5,4.5 0 0 1 -1.85,0.38 4.39,4.39 0 0 1 -1.84,-0.38 4.91,4.91 0 0 1 -1.52,-1 5.16,5.16 0 0 1 -1,-1.5 4.49,4.49 0 0 1 -0.38,-1.81 4.92,4.92 0 0 1 0.38,-1.88 4.86,4.86 0 0 1 2.56,-2.57 4.39,4.39 0 0 1 1.84,-0.38 4.5,4.5 0 0 1 1.85,0.38 4.81,4.81 0 0 1 1.51,1 5,5 0 0 1 1.06,1.54 4.48,4.48 0 0 1 0.41,1.88 z"
       id="path72"
       style="fill:#191919;fill-opacity:1" />
    <path
       class="cls-3"
       d="m 1139.35,289.63 v -53.89 h 2.81 a 1.45,1.45 0 0 1 1.62,1.36 l 0.49,8.12 a 30.17,30.17 0 0 1 8.59,-7.49 21.28,21.28 0 0 1 10.92,-2.86 20.25,20.25 0 0 1 7.82,1.41 14.43,14.43 0 0 1 5.61,4.07 18,18 0 0 1 3.36,6.39 28.85,28.85 0 0 1 1.13,8.44 v 34.45 h -5.14 v -34.45 c 0,-5 -1.16,-9 -3.47,-11.88 -2.31,-2.88 -5.85,-4.31 -10.62,-4.31 a 18.81,18.81 0 0 0 -9.86,2.73 28.93,28.93 0 0 0 -8.13,7.5 v 40.41 h -5.14 z"
       id="path74"
       style="fill:#191919;fill-opacity:1" />
    <path
       class="cls-3"
       d="m 1212.63,290.5 q -5.47,0 -8.5,-3 c -2,-2 -3,-5.14 -3,-9.37 v -36.86 h -7.75 a 1.47,1.47 0 0 1 -1,-0.33 1.19,1.19 0 0 1 -0.38,-0.92 v -2 l 9.22,-0.64 1.28,-19.29 a 1.49,1.49 0 0 1 0.41,-0.86 1.19,1.19 0 0 1 0.94,-0.38 h 2.41 v 20.58 h 17 v 3.85 h -17 v 36.56 a 11.41,11.41 0 0 0 0.57,3.82 7.16,7.16 0 0 0 1.58,2.62 6.28,6.28 0 0 0 2.35,1.52 8.85,8.85 0 0 0 2.92,0.48 9.19,9.19 0 0 0 3.36,-0.56 14,14 0 0 0 2.43,-1.25 14.67,14.67 0 0 0 1.69,-1.25 1.84,1.84 0 0 1 1,-0.57 1.19,1.19 0 0 1 0.86,0.54 l 1.41,2.28 a 15.13,15.13 0 0 1 -5.23,3.66 16.4,16.4 0 0 1 -6.58,1.37 z"
       id="path76"
       style="fill:#191919;fill-opacity:1" />
    <path
       class="cls-3"
       d="m 1243.23,235.74 v 53.89 h -5.14 v -53.89 z m 2.28,-18.57 a 4.1,4.1 0 0 1 -0.41,1.81 5.53,5.53 0 0 1 -1.06,1.5 5,5 0 0 1 -1.51,1 4.5,4.5 0 0 1 -1.85,0.38 4.39,4.39 0 0 1 -1.84,-0.38 4.91,4.91 0 0 1 -1.52,-1 5.16,5.16 0 0 1 -1,-1.5 4.48,4.48 0 0 1 -0.37,-1.81 4.91,4.91 0 0 1 0.37,-1.88 4.86,4.86 0 0 1 2.56,-2.57 4.39,4.39 0 0 1 1.84,-0.38 4.5,4.5 0 0 1 1.85,0.38 4.81,4.81 0 0 1 1.51,1 5,5 0 0 1 1.06,1.54 4.48,4.48 0 0 1 0.41,1.88 z"
       id="path78"
       style="fill:#191919;fill-opacity:1" />
    <path
       class="cls-3"
       d="m 1262.31,289.63 v -53.89 h 2.81 a 1.47,1.47 0 0 1 1.63,1.36 l 0.48,8.12 a 30.36,30.36 0 0 1 8.59,-7.49 21.28,21.28 0 0 1 10.92,-2.86 20.2,20.2 0 0 1 7.82,1.41 14.43,14.43 0 0 1 5.61,4.07 18,18 0 0 1 3.36,6.39 28.83,28.83 0 0 1 1.14,8.44 v 34.45 h -5.15 v -34.45 c 0,-5 -1.16,-9 -3.47,-11.88 -2.31,-2.88 -5.85,-4.31 -10.62,-4.31 a 18.81,18.81 0 0 0 -9.86,2.73 28.93,28.93 0 0 0 -8.13,7.5 v 40.41 h -5.14 z"
       id="path80"
       style="fill:#191919;fill-opacity:1" />
    <path
       class="cls-3"
       d="m 1338.69,234.82 a 23.82,23.82 0 0 1 6.53,0.87 19.86,19.86 0 0 1 5.38,2.43 h 13.81 v 1.79 q 0,1.35 -1.51,1.47 l -8.18,0.59 a 16,16 0 0 1 2.32,4.64 18.07,18.07 0 0 1 0.82,5.49 17.18,17.18 0 0 1 -1.41,7.07 15.83,15.83 0 0 1 -3.92,5.42 18,18 0 0 1 -6,3.49 23.25,23.25 0 0 1 -7.79,1.24 24.15,24.15 0 0 1 -8.46,-1.4 11.13,11.13 0 0 0 -3.58,3.09 5.91,5.91 0 0 0 -1.31,3.47 4.23,4.23 0 0 0 1.61,3.52 10.66,10.66 0 0 0 4.31,1.81 38.07,38.07 0 0 0 6.12,0.73 l 7,0.35 c 2.37,0.12 4.69,0.35 7,0.68 a 22.11,22.11 0 0 1 6.12,1.7 10.89,10.89 0 0 1 4.31,3.41 9.56,9.56 0 0 1 1.62,5.83 13.4,13.4 0 0 1 -1.67,6.44 17,17 0 0 1 -4.85,5.47 25.36,25.36 0 0 1 -7.65,3.82 33.29,33.29 0 0 1 -10.09,1.44 38.28,38.28 0 0 1 -10,-1.17 23.93,23.93 0 0 1 -7.18,-3.14 13.6,13.6 0 0 1 -4.35,-4.58 11,11 0 0 1 -1.47,-5.52 10.55,10.55 0 0 1 2.78,-7.27 18.29,18.29 0 0 1 7.75,-4.77 10.2,10.2 0 0 1 -4.31,-2.65 6.86,6.86 0 0 1 -1.59,-4.83 7,7 0 0 1 0.44,-2.38 10,10 0 0 1 1.29,-2.46 13.76,13.76 0 0 1 2.09,-2.3 14,14 0 0 1 2.84,-2 16.08,16.08 0 0 1 -6,-5.9 16.86,16.86 0 0 1 -2.15,-8.62 17.49,17.49 0 0 1 1.39,-7.07 15.74,15.74 0 0 1 3.9,-5.44 17.46,17.46 0 0 1 6.09,-3.52 23.91,23.91 0 0 1 7.91,-1.25 z m 20,58.45 a 6,6 0 0 0 -1.33,-4.08 8.81,8.81 0 0 0 -3.55,-2.42 21.2,21.2 0 0 0 -5.11,-1.21 c -1.93,-0.24 -4,-0.41 -6.08,-0.52 l -6.36,-0.33 a 48.59,48.59 0 0 1 -6,-0.65 27,27 0 0 0 -3.82,1.86 14.11,14.11 0 0 0 -3,2.39 10.25,10.25 0 0 0 -1.94,2.92 8.45,8.45 0 0 0 -0.71,3.49 8.54,8.54 0 0 0 1.21,4.42 10.94,10.94 0 0 0 3.58,3.52 20.17,20.17 0 0 0 5.78,2.35 32.32,32.32 0 0 0 7.84,0.87 30.56,30.56 0 0 0 7.67,-0.92 21.28,21.28 0 0 0 6.17,-2.6 13.37,13.37 0 0 0 4.12,-4 9.27,9.27 0 0 0 1.5,-5.1 z m -20,-27.46 a 17.76,17.76 0 0 0 6.17,-1 12.65,12.65 0 0 0 4.54,-2.8 11.56,11.56 0 0 0 2.8,-4.27 16.6,16.6 0 0 0 0,-11.08 11.72,11.72 0 0 0 -2.85,-4.31 12.93,12.93 0 0 0 -4.54,-2.76 17.73,17.73 0 0 0 -6.09,-1 18,18 0 0 0 -6.13,1 12.93,12.93 0 0 0 -4.57,2.76 11.54,11.54 0 0 0 -2.84,4.31 15.19,15.19 0 0 0 -1,5.55 15,15 0 0 0 1,5.53 11.49,11.49 0 0 0 2.82,4.26 13,13 0 0 0 4.57,2.8 17.63,17.63 0 0 0 6.13,1 z"
       id="path82"
       style="fill:#191919;fill-opacity:1" />
  </g>
</svg>
